<?xml version="1.0" standalone="no"?>
<!DOCTYPE svg PUBLIC "-//W3C//DTD SVG 20010904//EN"
 "http://www.w3.org/TR/2001/REC-SVG-20010904/DTD/svg10.dtd">
<svg version="1.0" xmlns="http://www.w3.org/2000/svg"
 width="500.000000pt" height="500.000000pt" viewBox="0 0 500.000000 500.000000"
 preserveAspectRatio="xMidYMid meet">

<g transform="translate(0.000000,500.000000) scale(0.100000,-0.100000)"
fill="#000000" stroke="none">
<path d="M535 3901 c-65 -16 -115 -54 -146 -111 -12 -21 -14 -235 -17 -1260
-2 -882 0 -1248 8 -1280 15 -58 51 -105 100 -130 38 -20 60 -20 891 -20 847 0
853 0 896 21 48 23 88 74 103 130 l10 36 88 -43 c117 -58 273 -108 401 -129
126 -21 393 -16 506 9 263 59 512 191 693 368 213 208 338 432 404 729 29 133
32 383 5 524 -85 442 -353 803 -747 1007 -92 47 -222 94 -340 123 -88 22 -378
31 -494 16 -122 -17 -302 -73 -419 -131 -63 -31 -99 -44 -102 -37 -2 7 -6 24
-9 38 -9 43 -50 93 -96 119 l-45 25 -830 2 c-456 1 -843 -2 -860 -6z m1517
-458 c-168 -195 -289 -431 -332 -648 -6 -33 -14 -68 -16 -77 -5 -17 -36 -18
-470 -18 l-464 0 0 400 0 400 666 0 666 0 -50 -57z m1308 27 c173 -50 368
-170 479 -297 98 -110 176 -250 216 -388 159 -550 -155 -1106 -710 -1255 -103
-28 -296 -37 -402 -20 -450 71 -786 420 -843 874 -52 414 166 823 540 1010
172 86 269 106 485 101 127 -2 176 -8 235 -25z m-1642 -1242 c16 -94 71 -256
118 -350 47 -95 132 -223 192 -290 26 -29 53 -61 61 -70 13 -17 -20 -18 -653
-18 l-666 0 0 400 0 400 468 0 468 0 12 -72z"/>
</g>
</svg>
